HIERARCHY
ROOT Hips
{
	OFFSET 0.00000 0.00000 0.00000
	CHANNELS 6 Xposition Yposition Zposition Zrotation Yrotation Xrotation 
	JOINT RightUpLegDummy
	{
		OFFSET 0 0 0
		CHANNELS 3 Zrotation Yrotation Xrotation
		JOINT RightUpLeg
		{
			OFFSET -3.52197 -3.41223 0.04002
			CHANNELS 3 Zrotation Yrotation Xrotation
			JOINT RightLeg
			{
				OFFSET 0.00006 -17.42390 1.60435
				CHANNELS 3 Zrotation Yrotation Xrotation
				JOINT RightFoot
				{
					OFFSET 0.06153 -16.50078 -1.63901
					CHANNELS 3 Zrotation Yrotation Xrotation
					JOINT RightToes
					{
						OFFSET 0.00298 -1.73825 3.34613
						CHANNELS 3 Zrotation Yrotation Xrotation
						End Site
						{
							OFFSET 0.00480 -0.05416 3.85043
						}
					}
				}
			}
		}
	}
	JOINT SpineDummy
	{
		OFFSET 0 0 0
		CHANNELS 3 Zrotation Yrotation Xrotation
		JOINT Spine
		{
			OFFSET 0.00000 4.68130 0.00000
			CHANNELS 3 Zrotation Yrotation Xrotation
			JOINT Spine1
			{
				OFFSET -0.00000 10.10138 0.05002
				CHANNELS 3 Zrotation Yrotation Xrotation
				JOINT HEadDummy
				{
					OFFSET 0 0 0
					CHANNELS 3 Zrotation Yrotation Xrotation
					JOINT Head
					{
						OFFSET -0.00000 3.43865 0.00438
						CHANNELS 3 Zrotation Yrotation Xrotation
						End Site
						{
							OFFSET -0.11417 5.02924 0.98962
						}
					}
				}
				JOINT LeftShoulder1Dummy
				{
					OFFSET 0 0 0
					CHANNELS 3 Zrotation Yrotation Xrotation
					JOINT LeftShoulder1
					{
						OFFSET 3.53937 -0.14262 -0.08662
						CHANNELS 3 Zrotation Yrotation Xrotation
						JOINT LeftArm
						{
							OFFSET 4.04833 -0.00133 0.12681
							CHANNELS 3 Zrotation Yrotation Xrotation
							JOINT LeftForeArm
							{
								OFFSET 10.33880 -0.01036 -0.55515
								CHANNELS 3 Zrotation Yrotation Xrotation
								JOINT LeftHand
								{
									OFFSET 8.69677 0.07543 0.40060
									CHANNELS 3 Zrotation Yrotation Xrotation
									End Site
									{
										OFFSET 5.28377 -0.21905 0.59205
									}
								}
							}
						}
					}
				}
				JOINT RightShoulderDummy
				{
					OFFSET 0 0 0
					CHANNELS 3 Zrotation Yrotation Xrotation
					JOINT RightShoulder
					{
						OFFSET -3.53937 -0.14262 -0.08660
						CHANNELS 3 Zrotation Yrotation Xrotation
						JOINT RightArm
						{
							OFFSET -4.04833 -0.00133 0.12683
							CHANNELS 3 Zrotation Yrotation Xrotation
							JOINT RightForeArm
							{
								OFFSET -10.37987 -0.01039 -0.55511
								CHANNELS 3 Zrotation Yrotation Xrotation
								JOINT RightHand
								{
									OFFSET -8.67398 0.07538 0.40058
									CHANNELS 3 Zrotation Yrotation Xrotation
									End Site
									{
										OFFSET -5.24810 -0.21916 0.59204
									}
								}
							}
						}
					}
				}
			}
		}
	}
	JOINT LeftUpLegDummy
	{
		OFFSET 0 0 0
		CHANNELS 3 Zrotation Yrotation Xrotation
		JOINT LeftUpLeg
		{
			OFFSET 3.52197 -3.41223 0.04002
			CHANNELS 3 Zrotation Yrotation Xrotation
			JOINT LeftLeg
			{
				OFFSET -0.00012 -17.42399 1.60337
				CHANNELS 3 Zrotation Yrotation Xrotation
				JOINT LeftFoot
				{
					OFFSET -0.09972 -16.50070 -1.63802
					CHANNELS 3 Zrotation Yrotation Xrotation
					JOINT LeftToes
					{
						OFFSET -0.01575 -1.73823 3.34611
						CHANNELS 3 Zrotation Yrotation Xrotation
						End Site
						{
							OFFSET 0.03150 -0.01868 3.85031
						}
					}
				}
			}
		}
	}
}
MOTION
Frames: 19
Frame Time: 0.033333
28.9954 39.3017 15.1539 0.6292 -11.9890 -5.7326 0.0000 0.0000 0.0000 4.7071 -2.6265 7.7275 2.3704 5.7578 12.2690 -8.0391 -0.2274 -13.8521 0.0000 -0.0000 0.0000 0.0000 0.0000 0.0000 0.2598 -0.0213 7.9807 5.4064 -1.0460 -0.1755 -0.0000 0.0000 -0.0000 4.3616 -1.1425 -1.5496 -0.0000 0.0000 -0.0000 -33.7465 -3.0145 2.5923 -49.6024 -18.3600 -11.6718 -12.5901 5.1781 45.3008 18.6873 -4.4854 -1.5631 -0.0000 0.0000 -0.0000 35.5483 5.3093 3.6646 35.2393 8.1407 -16.2255 11.2733 -0.9681 20.4031 -12.4179 1.8718 -0.7619 0.0000 0.0000 0.0000 0.8779 0.8581 -13.3337 -2.7814 -8.4282 0.1648 -12.7934 1.3638 0.8253 0.0000 0.0000 -0.0000
28.9518 39.2190 15.8718 0.5307 -13.6588 -5.5344 0.0000 0.0000 0.0000 4.4319 -2.7282 8.4107 2.7244 7.4500 12.9552 -7.8542 -0.2944 -14.8303 0.0000 -0.0000 0.0000 0.0000 0.0000 0.0000 0.1433 0.0668 7.7990 5.3317 -0.9501 0.0362 -0.0000 0.0000 -0.0000 4.1717 -1.1042 -2.0931 -0.0000 0.0000 -0.0000 -33.7379 -2.9887 2.5815 -49.1756 -17.9041 -12.3479 -12.6145 5.2717 41.6927 17.6673 -4.1865 -1.4309 -0.0000 0.0000 -0.0000 35.5541 5.3052 3.6635 35.0164 7.0210 -17.1622 11.0129 -2.3811 21.2845 -12.4149 1.5884 -0.7334 0.0000 0.0000 0.0000 0.5726 0.6085 -13.3801 -2.6103 -7.0747 1.3820 -11.4497 1.1813 0.4354 0.0000 0.0000 -0.0000
28.9078 39.1833 16.6299 0.5279 -15.6384 -5.4116 0.0000 0.0000 0.0000 3.9783 -2.6387 9.3791 3.1093 9.3812 13.2607 -7.8311 -0.3243 -15.2546 0.0000 -0.0000 0.0000 0.0000 0.0000 0.0000 -0.0932 0.3059 7.5125 5.3795 -0.7262 0.3994 -0.0000 0.0000 -0.0000 4.0034 -1.1219 -2.3699 -0.0000 0.0000 -0.0000 -33.8068 -2.9502 2.5707 -48.4564 -17.7897 -12.8034 -12.6121 5.3045 40.3392 16.5934 -4.0421 -1.3201 -0.0000 0.0000 -0.0000 35.4370 5.2827 3.6436 34.8937 5.7730 -18.1126 10.6931 -3.5054 22.1890 -12.4075 1.5383 -0.7280 0.0000 0.0000 0.0000 0.1633 0.1424 -13.1592 -2.2300 -6.4056 3.0973 -8.4460 0.9173 1.1988 0.0000 0.0000 -0.0000
28.8540 39.1788 17.4451 0.5829 -17.8399 -5.3373 0.0000 0.0000 0.0000 3.3660 -2.2845 10.4649 3.5429 11.1522 13.4704 -7.7661 -0.3223 -15.2608 0.0000 -0.0000 0.0000 0.0000 0.0000 0.0000 -0.3854 0.5472 7.1974 5.4265 -0.4881 0.5854 -0.0000 0.0000 -0.0000 3.9048 -0.9609 -2.1870 -0.0000 0.0000 -0.0000 -33.9558 -2.8875 2.5554 -47.5356 -17.7550 -13.3203 -12.3320 5.2408 43.0453 16.2804 -4.2808 -1.3266 -0.0000 0.0000 -0.0000 35.3627 5.2748 3.6337 34.7318 4.4232 -18.8270 10.4687 -4.4490 22.8031 -12.2826 1.4115 -0.7080 0.0000 0.0000 0.0000 -0.1806 -0.2708 -12.6742 -1.8866 -6.4489 4.4895 -5.2978 0.6559 3.1814 0.0000 0.0000 -0.0000
28.7719 39.1467 18.3176 0.7391 -19.8256 -5.2846 0.0000 0.0000 0.0000 2.5486 -1.8558 11.1599 4.1769 12.3841 14.5306 -7.1700 -0.3040 -15.2892 0.0000 -0.0000 0.0000 0.0000 0.0000 0.0000 -0.8600 0.6100 6.6928 5.4429 -0.4267 0.7262 -0.0000 0.0000 -0.0000 3.9077 -0.7101 -1.7696 -0.0000 0.0000 -0.0000 -34.0070 -2.8628 2.5488 -46.5854 -17.7536 -14.0875 -11.7863 5.1192 47.8169 16.4938 -4.5022 -1.3745 -0.0000 0.0000 -0.0000 35.4188 5.2863 3.6434 34.5336 3.1387 -19.3974 10.3059 -5.2123 23.0953 -12.2580 1.1537 -0.6812 0.0000 0.0000 0.0000 -0.4523 -0.4312 -12.3062 -1.7292 -5.9470 6.0421 -3.7642 0.5194 5.2636 0.0000 0.0000 -0.0000
28.6695 39.1201 19.2079 1.0677 -21.3310 -5.2956 0.0000 0.0000 0.0000 1.5233 -1.4834 11.4957 5.0344 13.2779 16.2794 -6.3878 -0.2494 -14.8311 0.0000 -0.0000 0.0000 0.0000 0.0000 0.0000 -1.6853 0.4546 6.1110 5.5837 -0.6136 0.9144 -0.0000 0.0000 -0.0000 3.9525 -0.5948 -1.4922 -0.0000 0.0000 -0.0000 -33.8709 -2.8823 2.5478 -45.8126 -17.8123 -15.2309 -11.0440 5.0075 51.8731 16.4458 -4.3337 -1.3478 -0.0000 0.0000 -0.0000 35.5048 5.2952 3.6549 34.4415 1.9908 -20.0093 10.0916 -5.5864 23.1775 -12.4352 1.0933 -0.6853 0.0000 0.0000 0.0000 -0.8282 -0.4584 -11.9352 -1.6137 -4.5547 7.7443 -3.1538 0.4469 6.1017 0.0000 0.0000 -0.0000
28.5839 39.0996 20.0723 1.4880 -22.6474 -5.4401 0.0000 0.0000 0.0000 0.3680 -1.2722 11.3517 6.2458 14.2143 18.9985 -6.1805 -0.1723 -13.6358 0.0000 -0.0000 0.0000 0.0000 0.0000 0.0000 -2.5709 0.2348 5.7764 5.7761 -0.8680 1.0700 -0.0000 0.0000 -0.0000 3.9240 -0.6696 -1.5141 -0.0000 0.0000 -0.0000 -33.6454 -2.8920 2.5371 -45.3046 -17.8955 -16.8684 -10.0173 4.9332 54.5798 15.8429 -3.8753 -1.2371 -0.0000 0.0000 -0.0000 35.4796 5.2888 3.6500 34.5427 1.0047 -20.5874 9.8591 -5.4452 22.8780 -12.4243 1.2830 -0.7035 0.0000 0.0000 0.0000 -1.3526 -0.3915 -11.6716 -1.5718 -3.1307 10.0495 -1.7371 0.2209 4.8256 0.0000 0.0000 -0.0000
28.5400 39.0692 20.8916 1.7809 -24.2569 -5.6867 0.0000 0.0000 0.0000 -0.9162 -1.4213 10.5262 7.9286 15.1644 22.9426 -5.1854 -0.0702 -11.9185 0.0000 -0.0000 0.0000 0.0000 0.0000 0.0000 -2.8952 0.1422 5.8259 5.6399 -0.9226 1.1231 -0.0000 0.0000 -0.0000 3.7436 -0.7906 -1.7036 -0.0000 0.0000 -0.0000 -33.4491 -2.8835 2.5211 -44.9673 -17.9176 -18.7208 -8.8176 4.8851 56.4337 15.0716 -3.3443 -1.1090 -0.0000 0.0000 -0.0000 35.3171 5.2689 3.6271 34.8277 0.3292 -20.8929 9.7442 -5.0051 22.1007 -12.0654 1.3633 -0.6906 0.0000 0.0000 0.0000 -1.7433 -0.0705 -11.4001 -1.6613 -1.9829 12.6068 0.1633 -0.0338 2.3093 0.0000 0.0000 -0.0000
28.5288 39.0059 21.6618 1.8464 -26.2216 -5.9176 0.0000 0.0000 0.0000 -2.3715 -1.9115 8.7918 10.0508 15.6306 28.1818 -0.3536 -0.0391 -9.8287 0.0000 -0.0000 0.0000 0.0000 0.0000 0.0000 -2.5377 0.1967 6.1804 5.1053 -0.7495 1.0154 -0.0000 0.0000 -0.0000 3.3947 -0.7845 -1.8418 -0.0000 0.0000 -0.0000 -33.3263 -2.8931 2.5170 -44.6594 -17.7841 -19.9947 -8.0138 4.8634 57.3185 14.5971 -2.9190 -1.0221 -0.0000 0.0000 -0.0000 35.1219 5.2441 3.5995 35.1794 0.1565 -20.8578 9.7700 -4.6324 21.4240 -11.7973 1.2147 -0.6608 0.0000 0.0000 0.0000 -1.8063 0.4873 -11.0630 -1.7521 -0.6676 14.9843 1.1342 -0.1113 -0.2154 0.0000 0.0000 -0.0000
28.5241 38.9009 22.3711 1.8205 -28.1730 -6.1166 0.0000 0.0000 0.0000 -3.8658 -2.4782 6.2640 12.1864 15.2043 34.2862 8.7033 -0.3758 -6.9688 0.0000 -0.0000 0.0000 0.0000 0.0000 0.0000 -2.1546 0.2669 6.8065 4.7111 -0.5868 0.6818 -0.0000 0.0000 -0.0000 2.9293 -0.5935 -1.8739 -0.0000 0.0000 -0.0000 -33.3056 -2.9173 2.5252 -44.3340 -17.4904 -20.1436 -8.0384 4.8740 56.9967 14.6131 -2.7318 -1.0012 -0.0000 0.0000 -0.0000 35.0341 5.2317 3.5866 35.3883 0.5043 -20.6105 9.8480 -4.3869 21.4078 -11.8069 1.1341 -0.6538 0.0000 0.0000 0.0000 -1.7687 1.0497 -10.7591 -1.6591 0.8158 17.2412 1.3110 -0.0868 -2.4729 0.0000 0.0000 -0.0000
28.5041 38.7759 23.0109 1.8537 -29.8172 -6.4146 0.0000 0.0000 0.0000 -5.0442 -2.7627 3.4764 13.2857 13.4509 40.2801 17.5397 -1.2343 -3.3994 0.0000 -0.0000 0.0000 0.0000 0.0000 0.0000 -2.3272 0.2675 7.6976 4.9378 -0.6149 0.2285 -0.0000 0.0000 -0.0000 2.4814 -0.2921 -1.9347 -0.0000 0.0000 -0.0000 -33.4110 -2.9228 2.5342 -44.0068 -17.2230 -19.4983 -8.6137 4.8993 56.0763 15.0079 -2.8031 -1.0380 -0.0000 0.0000 -0.0000 35.0822 5.2417 3.5950 35.4192 1.1937 -20.2600 9.9386 -3.9149 21.5519 -11.7658 1.2629 -0.6635 0.0000 0.0000 0.0000 -1.8909 1.4344 -10.4349 -1.3812 2.1140 19.4124 1.7685 -0.0753 -4.6149 0.0000 0.0000 -0.0000
28.4499 38.6868 23.6111 1.8684 -31.1795 -6.8431 0.0000 0.0000 0.0000 -5.5769 -2.7515 0.9383 12.0988 10.2838 45.1634 20.9388 -1.9678 -0.6511 0.0000 -0.0000 0.0000 0.0000 0.0000 0.0000 -2.8368 0.2239 8.6394 5.5814 -0.7817 -0.0392 -0.0000 0.0000 -0.0000 2.2116 0.0017 -2.1188 -0.0000 0.0000 -0.0000 -33.5811 -2.9159 2.5424 -43.6790 -17.2481 -18.7584 -9.1765 4.9173 55.3544 15.4694 -3.0227 -1.0987 -0.0000 0.0000 -0.0000 35.1697 5.2574 3.6092 35.5762 2.0342 -19.8241 10.0616 -2.8966 21.0262 -11.6974 1.4083 -0.6732 0.0000 0.0000 0.0000 -2.0752 1.6546 -9.7417 -1.0001 3.1734 21.0204 2.4098 -0.0652 -6.4312 0.0000 0.0000 -0.0000
28.3507 38.6835 24.2225 1.6534 -32.3711 -7.1848 0.0000 0.0000 0.0000 -5.3953 -2.7566 -1.2017 8.2037 6.2199 48.2923 18.3000 -1.7718 -0.4301 0.0000 -0.0000 0.0000 0.0000 0.0000 0.0000 -3.0820 0.1452 9.2908 6.1059 -0.9844 0.0356 -0.0000 0.0000 -0.0000 2.1964 0.1902 -2.2945 -0.0000 0.0000 -0.0000 -33.6640 -2.9251 2.5514 -43.3778 -17.6495 -18.2012 -9.5411 4.9299 54.8501 15.7429 -3.2480 -1.1478 -0.0000 0.0000 -0.0000 35.2440 5.2614 3.6175 36.1407 2.9360 -19.3224 10.1906 -1.4667 20.0520 -11.9786 1.4449 -0.6933 0.0000 0.0000 0.0000 -2.0857 1.8268 -8.4831 -0.5589 4.1147 21.6232 2.5103 -0.0348 -7.6690 0.0000 0.0000 -0.0000
28.2173 38.7599 24.8581 1.1336 -33.3865 -7.1967 0.0000 0.0000 0.0000 -4.6511 -3.0149 -3.0700 2.6258 2.0113 49.4046 12.9515 -1.0277 -2.4303 0.0000 -0.0000 0.0000 0.0000 0.0000 0.0000 -2.8521 -0.0162 9.5448 6.3231 -1.2197 0.2319 -0.0000 0.0000 -0.0000 2.3784 0.1789 -2.1963 -0.0000 0.0000 -0.0000 -33.5543 -2.9450 2.5522 -43.1974 -18.2780 -17.7541 -9.8006 4.9467 54.2456 15.8397 -3.3942 -1.1741 -0.0000 0.0000 -0.0000 35.3609 5.2679 3.6307 37.0000 3.8202 -18.7404 10.3040 0.0144 19.3283 -12.3024 1.4920 -0.7171 0.0000 0.0000 0.0000 -1.8848 2.0311 -6.9500 -0.1354 4.8843 21.4400 2.3267 -0.0066 -8.4944 0.0000 0.0000 -0.0000
28.0671 38.8640 25.4863 0.4363 -34.2337 -6.8767 0.0000 0.0000 0.0000 -3.5724 -3.4150 -4.7891 -2.3598 -1.5106 48.6236 8.2351 -0.4919 -4.7118 0.0000 -0.0000 0.0000 0.0000 0.0000 0.0000 -2.4024 -0.2364 9.6007 6.4441 -1.4836 0.2332 -0.0000 0.0000 -0.0000 2.6332 -0.0928 -1.7135 -0.0000 0.0000 -0.0000 -33.3106 -2.9532 2.5390 -43.1932 -18.9666 -17.4157 -9.9618 4.9654 53.6108 15.9032 -3.4367 -1.1845 -0.0000 0.0000 -0.0000 35.5214 5.2929 3.6554 37.8923 4.5433 -17.8881 10.5033 1.4969 18.6973 -11.9923 1.6128 -0.7102 0.0000 0.0000 0.0000 -1.5663 2.2675 -5.5620 0.1708 5.4532 21.0424 2.5034 0.0094 -9.2258 0.0000 0.0000 -0.0000
27.8975 38.9567 26.0807 -0.2586 -35.0723 -6.4108 0.0000 0.0000 0.0000 -2.3517 -3.7501 -6.3305 -5.2524 -3.9236 46.2404 5.3437 -0.2616 -6.1822 0.0000 -0.0000 0.0000 0.0000 0.0000 0.0000 -2.0186 -0.3945 9.6356 6.6651 -1.6899 0.0376 -0.0000 0.0000 -0.0000 2.8731 -0.5351 -1.0697 -0.0000 0.0000 -0.0000 -33.0878 -2.9558 2.5217 -43.2830 -19.6456 -17.1661 -10.0440 4.9832 53.0264 15.9358 -3.4146 -1.1842 -0.0000 0.0000 -0.0000 35.6150 5.3183 3.6744 38.7905 5.0602 -16.5589 10.8668 3.1425 18.1461 -11.5517 1.7680 -0.6975 0.0000 0.0000 0.0000 -1.1975 2.5616 -4.3812 0.3685 5.9697 20.6652 2.8438 0.0248 -9.9398 0.0000 0.0000 -0.0000
27.6981 39.0293 26.6417 -0.8414 -36.0631 -5.9437 0.0000 0.0000 0.0000 -1.1441 -4.0553 -7.6529 -6.2918 -5.4318 42.5239 4.2663 -0.1808 -7.1779 0.0000 -0.0000 0.0000 0.0000 0.0000 0.0000 -1.7816 -0.4273 9.6006 6.9556 -1.7842 -0.0798 -0.0000 0.0000 -0.0000 3.0855 -0.9043 -0.6662 -0.0000 0.0000 -0.0000 -32.9764 -2.9554 2.5138 -43.3257 -20.2555 -16.7717 -10.2440 5.0083 52.1554 15.8792 -3.4361 -1.1826 -0.0000 0.0000 -0.0000 35.6043 5.3252 3.6767 39.7514 5.5980 -14.8045 11.1955 4.7093 19.2738 -12.3490 1.9922 -0.7704 0.0000 0.0000 0.0000 -0.8684 2.8444 -3.2603 0.6260 6.6763 20.2401 2.8950 0.0443 -10.5818 0.0000 0.0000 -0.0000
27.4761 39.0943 27.1792 -1.2829 -37.2101 -5.5048 0.0000 0.0000 0.0000 -0.0374 -4.4704 -8.7804 -6.1994 -6.3496 37.7067 4.2855 -0.1616 -7.7994 0.0000 -0.0000 0.0000 0.0000 0.0000 0.0000 -1.6234 -0.4004 9.3942 7.1807 -1.8198 0.0526 -0.0000 0.0000 -0.0000 3.2771 -1.0118 -0.6980 -0.0000 0.0000 -0.0000 -32.9705 -2.9534 2.5176 -43.2549 -20.7184 -16.0767 -10.6867 5.0445 50.8120 15.8649 -3.5769 -1.1998 -0.0000 0.0000 -0.0000 35.5813 5.3258 3.6758 40.5805 6.4173 -12.9972 11.1854 5.5919 23.4255 -14.4687 2.1614 -0.9255 0.0000 0.0000 0.0000 -0.7222 2.9695 -2.1091 1.0925 7.7049 19.6487 2.8633 0.0611 -11.1111 0.0000 0.0000 -0.0000
27.2499 39.1619 27.6978 -1.6241 -38.4674 -5.0875 0.0000 0.0000 0.0000 1.0141 -4.8483 -9.7101 -5.5564 -6.9218 32.1294 4.3985 -0.1736 -7.5551 0.0000 -0.0000 0.0000 0.0000 0.0000 0.0000 -1.4290 -0.3788 9.0894 7.2682 -1.8406 0.3153 -0.0000 0.0000 -0.0000 3.4147 -0.9054 -0.9635 -0.0000 0.0000 -0.0000 -33.0524 -2.9501 2.5239 -43.1093 -21.0203 -15.2784 -11.2088 5.0808 49.3924 16.0553 -3.7513 -1.2377 -0.0000 0.0000 -0.0000 35.5762 5.3238 3.6731 40.9347 7.3878 -12.0882 10.9727 5.5645 29.1085 -16.2526 2.0624 -1.0297 0.0000 0.0000 0.0000 -0.7808 2.9424 -0.9000 1.7134 9.0239 18.8491 3.0473 0.0739 -11.5164 0.0000 0.0000 -0.0000
